<svg width="1243" height="359" viewBox="0 0 1243 359" fill="none" xmlns="http://www.w3.org/2000/svg">
<rect width="1241.35" height="358.211" transform="translate(0.881836 0.394531)" fill="white"/>
<path d="M561.675 77.2865H562.78C563.436 77.2865 564.132 77.1637 564.869 76.918C565.606 76.6723 566.425 76.3857 567.326 76.0581C568.718 75.5668 570.397 75.0754 572.362 74.584C574.328 74.0108 576.743 73.7241 579.61 73.7241C582.886 73.7241 585.793 74.2155 588.331 75.1982C590.952 76.0991 593.122 77.3684 594.842 79.0063C596.644 80.5623 597.995 82.4049 598.896 84.5342C599.879 86.6634 600.37 88.8746 600.37 91.1676C600.37 94.3615 599.387 97.4325 597.422 100.381C595.538 103.329 592.59 105.704 588.577 107.506C594.228 109.143 598.445 111.764 601.23 115.367C604.014 118.971 605.406 123.065 605.406 127.652C605.406 131.091 604.751 134.285 603.441 137.233C602.213 140.099 600.37 142.638 597.913 144.849C595.538 146.979 592.672 148.657 589.314 149.886C585.957 151.114 582.189 151.728 578.013 151.728C574.901 151.728 572.321 151.442 570.274 150.869C568.226 150.295 566.507 149.763 565.114 149.272C564.214 148.944 563.395 148.698 562.658 148.535C561.921 148.289 561.184 148.166 560.446 148.166H559.341V138.707H560.569C562.699 141.655 565.319 143.908 568.431 145.464C571.625 146.938 574.901 147.675 578.258 147.675C581.207 147.675 583.868 147.183 586.243 146.201C588.618 145.136 590.625 143.744 592.262 142.024C593.982 140.304 595.252 138.339 596.071 136.128C596.971 133.916 597.422 131.623 597.422 129.248C597.422 126.792 596.93 124.417 595.948 122.124C594.965 119.749 593.573 117.66 591.771 115.859C589.969 114.057 587.758 112.624 585.138 111.559C582.599 110.495 579.692 109.962 576.416 109.962H570.765V105.909H577.03C579.569 105.909 581.78 105.499 583.664 104.68C585.629 103.861 587.267 102.756 588.577 101.363C589.887 99.9712 590.87 98.4152 591.525 96.6955C592.181 94.9757 592.508 93.174 592.508 91.2904C592.508 89.5707 592.181 87.8918 591.525 86.254C590.952 84.6161 590.051 83.1829 588.823 81.9545C587.594 80.6442 586.079 79.5796 584.278 78.7606C582.558 77.9417 580.552 77.5322 578.258 77.5322C575.474 77.5322 572.69 78.3102 569.905 79.8662C567.121 81.4222 564.787 83.7562 562.903 86.8682H561.675V77.2865ZM623.194 150.5V149.272C625.16 149.272 626.388 148.698 626.88 147.552C627.453 146.323 627.74 144.89 627.74 143.252V84.4113C627.74 83.5924 627.33 83.1829 626.511 83.1829C626.184 83.1829 625.733 83.3058 625.16 83.5514L611.156 87.9737V83.5514L639.778 73.6013V76.918C638.468 77.4913 637.403 78.3921 636.584 79.6205C635.847 80.8489 635.56 82.2821 635.724 83.92V142.761C635.724 144.481 636.011 145.996 636.584 147.306C637.157 148.616 638.468 149.272 640.515 149.272V150.5H623.194ZM687.681 149.272H688.296C688.869 149.272 689.401 149.026 689.893 148.535C690.384 148.043 690.793 147.47 691.121 146.815C691.53 146.16 691.817 145.464 691.981 144.726C692.145 143.908 692.227 143.17 692.227 142.515V77.0408C692.227 76.4676 692.145 75.8124 691.981 75.0754C691.817 74.3383 691.571 73.6422 691.244 72.9871C690.916 72.3319 690.507 71.7996 690.015 71.3901C689.524 70.8988 688.951 70.6531 688.296 70.6531H687.681V69.4247H711.39C717.859 69.4247 723.674 70.5712 728.833 72.8642C733.993 75.0754 738.333 78.1055 741.854 81.9545C745.458 85.7216 748.201 90.062 750.085 94.9757C751.968 99.8893 752.91 105.008 752.91 110.331C752.91 115.326 752.009 120.24 750.208 125.072C748.406 129.822 745.703 134.08 742.1 137.847C738.497 141.614 733.993 144.686 728.588 147.06C723.183 149.353 716.918 150.5 709.793 150.5H687.681V149.272ZM744.557 112.173C744.557 106.932 743.615 101.978 741.732 97.3097C739.848 92.6417 737.186 88.5879 733.747 85.1484C730.389 81.6269 726.376 78.8425 721.708 76.7952C717.122 74.7478 712.127 73.7241 706.722 73.7241H700.457V146.201H706.967C711.39 146.201 715.812 145.545 720.234 144.235C724.739 142.843 728.792 140.755 732.396 137.97C735.999 135.104 738.906 131.541 741.117 127.283C743.41 123.024 744.557 117.988 744.557 112.173ZM763.5 149.272H764.115C764.77 149.272 765.343 149.067 765.834 148.657C766.326 148.166 766.735 147.593 767.063 146.938C767.472 146.282 767.759 145.586 767.923 144.849C768.168 144.112 768.291 143.416 768.291 142.761V77.0408C768.291 76.4676 768.168 75.8124 767.923 75.0754C767.759 74.3383 767.472 73.6422 767.063 72.9871C766.735 72.3319 766.326 71.7996 765.834 71.3901C765.343 70.8988 764.77 70.6531 764.115 70.6531H763.5V69.4247H810.794V80.8489H809.566C809.402 78.9654 808.665 77.3275 807.355 75.9353C806.044 74.4612 803.997 73.7241 801.213 73.7241H776.522V104.803H796.913C798.797 104.803 800.353 104.23 801.581 103.083C802.892 101.937 803.547 100.585 803.547 99.0295H804.775V114.385H803.547C803.547 112.911 802.933 111.641 801.704 110.577C800.476 109.512 798.879 108.98 796.913 108.98H776.522V146.201H803.424C804.98 146.201 806.331 145.832 807.478 145.095C808.624 144.358 809.566 143.498 810.303 142.515C811.122 141.451 811.695 140.345 812.023 139.199C812.432 137.97 812.637 136.946 812.637 136.128H813.865V150.5H763.5V149.272ZM875.943 107.751H893.51V108.98H892.896C892.24 108.98 891.667 109.225 891.176 109.717C890.684 110.126 890.275 110.658 889.947 111.314C889.62 111.969 889.333 112.665 889.087 113.402C888.924 114.139 888.842 114.794 888.842 115.367V148.289C887.368 148.862 885.689 149.353 883.805 149.763C881.922 150.172 879.956 150.5 877.909 150.746C875.862 151.073 873.773 151.319 871.644 151.483C869.515 151.647 867.549 151.728 865.748 151.728C858.377 151.728 851.948 150.5 846.462 148.043C840.975 145.586 836.429 142.392 832.826 138.462C829.223 134.449 826.52 129.945 824.719 124.949C822.999 119.953 822.139 114.917 822.139 109.839C822.139 104.762 822.999 99.7256 824.719 94.73C826.52 89.7345 829.223 85.2712 832.826 81.3403C836.511 77.4094 841.097 74.2564 846.584 71.8815C852.153 69.4247 858.746 68.1963 866.362 68.1963C869.228 68.1963 871.89 68.442 874.347 68.9333C876.803 69.4247 878.974 69.8751 880.857 70.2846C881.922 70.5303 882.823 70.7759 883.56 71.0216C884.379 71.1854 885.075 71.2673 885.648 71.2673H886.754V84.2885H885.525C885.034 81.7498 884.051 79.7024 882.577 78.1464C881.185 76.5904 879.547 75.403 877.663 74.584C875.78 73.7651 873.773 73.2328 871.644 72.9871C869.597 72.6595 867.672 72.4957 865.87 72.4957C859.728 72.4957 854.405 73.6013 849.901 75.8124C845.397 77.9417 841.712 80.7261 838.845 84.1656C835.979 87.6052 833.85 91.4952 832.458 95.8356C831.065 100.094 830.369 104.353 830.369 108.611C830.369 113.361 831.27 118.07 833.072 122.738C834.873 127.324 837.412 131.46 840.688 135.145C843.964 138.748 847.895 141.696 852.481 143.989C857.149 146.201 862.308 147.306 867.959 147.306C869.515 147.306 871.439 147.142 873.732 146.815C876.025 146.405 878.318 145.545 880.611 144.235V115.367C880.611 114.794 880.53 114.139 880.366 113.402C880.202 112.665 879.915 111.969 879.506 111.314C879.178 110.658 878.769 110.126 878.277 109.717C877.786 109.225 877.213 108.98 876.558 108.98H875.943V107.751ZM920.563 149.272H921.177V150.5H903.856V149.272H904.47C905.044 149.272 905.576 149.026 906.067 148.535C906.559 148.043 906.968 147.47 907.296 146.815C907.705 146.16 907.992 145.464 908.156 144.726C908.32 143.908 908.401 143.17 908.401 142.515V77.0408C908.401 76.4676 908.32 75.8124 908.156 75.0754C907.992 74.3383 907.705 73.6422 907.296 72.9871C906.968 72.3319 906.559 71.7996 906.067 71.3901C905.576 70.8988 905.044 70.6531 904.47 70.6531H903.856V69.4247H925.231C933.42 69.4247 939.726 71.0216 944.148 74.2155C948.652 77.4094 950.905 82.1183 950.905 88.3423C950.905 91.4542 950.372 94.1977 949.308 96.5726C948.325 98.8657 946.974 100.872 945.254 102.592C943.534 104.23 941.487 105.581 939.112 106.646C936.819 107.628 934.362 108.365 931.741 108.857L940.586 122.369C942.715 125.645 944.885 128.88 947.096 132.074C949.308 135.186 951.478 138.421 953.607 141.778C954.18 142.597 954.795 143.457 955.45 144.358C956.187 145.259 956.924 146.078 957.661 146.815C958.48 147.552 959.299 148.166 960.118 148.657C961.018 149.067 961.919 149.272 962.82 149.272V150.5H957.538C954.262 150.5 951.56 149.722 949.43 148.166C947.383 146.528 945.663 144.645 944.271 142.515C940.586 137.11 936.901 131.623 933.215 126.055C929.612 120.486 926.009 114.999 922.405 109.594C921.505 109.512 920.522 109.43 919.457 109.348C918.474 109.184 917.533 109.021 916.632 108.857V142.515C916.632 143.17 916.714 143.908 916.877 144.726C917.041 145.464 917.287 146.16 917.615 146.815C918.024 147.47 918.433 148.043 918.843 148.535C919.334 149.026 919.908 149.272 920.563 149.272ZM916.632 73.6013V104.803H917.246C917.901 104.885 918.925 104.967 920.317 105.049C921.791 105.049 923.593 105.049 925.722 105.049C927.442 105.049 929.244 104.803 931.127 104.312C933.093 103.738 934.894 102.838 936.532 101.609C938.252 100.299 939.644 98.62 940.709 96.5726C941.855 94.5253 942.428 91.9456 942.428 88.8336C942.428 85.7216 941.814 83.1829 940.586 81.2175C939.439 79.252 937.801 77.696 935.672 76.5495C933.625 75.403 931.127 74.625 928.179 74.2155C925.231 73.806 921.996 73.6013 918.474 73.6013H916.632ZM970.195 149.272H970.81C971.465 149.272 972.038 149.067 972.529 148.657C973.021 148.166 973.43 147.593 973.758 146.938C974.167 146.282 974.454 145.586 974.618 144.849C974.863 144.112 974.986 143.416 974.986 142.761V77.0408C974.986 76.4676 974.863 75.8124 974.618 75.0754C974.454 74.3383 974.167 73.6422 973.758 72.9871C973.43 72.3319 973.021 71.7996 972.529 71.3901C972.038 70.8988 971.465 70.6531 970.81 70.6531H970.195V69.4247H1017.49V80.8489H1016.26C1016.1 78.9654 1015.36 77.3275 1014.05 75.9353C1012.74 74.4612 1010.69 73.7241 1007.91 73.7241H983.217V104.803H1003.61C1005.49 104.803 1007.05 104.23 1008.28 103.083C1009.59 101.937 1010.24 100.585 1010.24 99.0295H1011.47V114.385H1010.24C1010.24 112.911 1009.63 111.641 1008.4 110.577C1007.17 109.512 1005.57 108.98 1003.61 108.98H983.217V146.201H1010.12C1011.67 146.201 1013.03 145.832 1014.17 145.095C1015.32 144.358 1016.26 143.498 1017 142.515C1017.82 141.451 1018.39 140.345 1018.72 139.199C1019.13 137.97 1019.33 136.946 1019.33 136.128H1020.56V150.5H970.195V149.272ZM1029.82 149.272H1030.43C1031.09 149.272 1031.66 149.067 1032.15 148.657C1032.64 148.166 1033.05 147.593 1033.38 146.938C1033.79 146.282 1034.08 145.586 1034.24 144.849C1034.48 144.112 1034.61 143.416 1034.61 142.761V77.0408C1034.61 76.4676 1034.48 75.8124 1034.24 75.0754C1034.08 74.3383 1033.79 73.6422 1033.38 72.9871C1033.05 72.3319 1032.64 71.7996 1032.15 71.3901C1031.66 70.8988 1031.09 70.6531 1030.43 70.6531H1029.82V69.4247H1077.11V80.8489H1075.88C1075.72 78.9654 1074.98 77.3275 1073.67 75.9353C1072.36 74.4612 1070.31 73.7241 1067.53 73.7241H1042.84V104.803H1063.23C1065.11 104.803 1066.67 104.23 1067.9 103.083C1069.21 101.937 1069.86 100.585 1069.86 99.0295H1071.09V114.385H1069.86C1069.86 112.911 1069.25 111.641 1068.02 110.577C1066.79 109.512 1065.2 108.98 1063.23 108.98H1042.84V146.201H1069.74C1071.3 146.201 1072.65 145.832 1073.79 145.095C1074.94 144.358 1075.88 143.498 1076.62 142.515C1077.44 141.451 1078.01 140.345 1078.34 139.199C1078.75 137.97 1078.95 136.946 1078.95 136.128H1080.18V150.5H1029.82V149.272ZM1139.19 128.757C1139.19 132.852 1138.37 136.373 1136.73 139.321C1135.09 142.188 1132.96 144.522 1130.34 146.323C1127.81 148.125 1124.9 149.435 1121.62 150.254C1118.43 151.073 1115.23 151.483 1112.04 151.483C1108.77 151.483 1105.94 151.155 1103.56 150.5C1101.19 149.845 1099.02 149.231 1097.05 148.657C1095.74 148.248 1094.56 147.92 1093.49 147.675C1092.43 147.347 1091.36 147.183 1090.3 147.183V133.179H1091.53C1091.53 136.291 1092.3 138.789 1093.86 140.673C1095.5 142.474 1097.38 143.867 1099.51 144.849C1101.64 145.832 1103.77 146.487 1105.9 146.815C1108.03 147.06 1109.58 147.183 1110.57 147.183C1114.09 147.183 1117.12 146.692 1119.66 145.709C1122.2 144.645 1124.28 143.293 1125.92 141.655C1127.56 139.936 1128.75 138.052 1129.48 136.005C1130.3 133.957 1130.71 131.869 1130.71 129.74C1130.71 127.037 1130.14 124.785 1128.99 122.984C1127.85 121.1 1126.33 119.462 1124.45 118.07C1122.65 116.678 1120.56 115.49 1118.18 114.507C1115.81 113.525 1113.39 112.542 1110.94 111.559C1108.15 110.495 1105.41 109.389 1102.7 108.243C1100 107.096 1097.59 105.704 1095.46 104.066C1093.33 102.346 1091.61 100.34 1090.3 98.0467C1088.99 95.6718 1088.33 92.7645 1088.33 89.325C1088.33 85.7216 1089.03 82.6097 1090.42 79.989C1091.81 77.2865 1093.66 75.0754 1095.95 73.3556C1098.32 71.6358 1100.99 70.3665 1103.93 69.5475C1106.96 68.6467 1110.03 68.1963 1113.15 68.1963C1115.28 68.1963 1117.28 68.3601 1119.17 68.6876C1121.05 68.9333 1122.85 69.2609 1124.57 69.6704C1125.96 69.9979 1127.31 70.2846 1128.62 70.5303C1129.93 70.694 1131.2 70.7759 1132.43 70.7759V83.4286H1131.2C1131.04 79.1701 1129.36 76.3038 1126.17 74.8297C1122.97 73.2737 1118.55 72.4957 1112.9 72.4957C1109.62 72.4957 1106.92 73.069 1104.79 74.2155C1102.75 75.2801 1101.11 76.6314 1099.88 78.2693C1098.65 79.8253 1097.79 81.545 1097.3 83.4286C1096.89 85.2303 1096.69 86.8272 1096.69 88.2194C1096.69 90.5125 1097.18 92.4779 1098.16 94.1158C1099.22 95.7537 1100.62 97.1868 1102.34 98.4152C1104.06 99.6437 1106.02 100.749 1108.23 101.732C1110.53 102.715 1112.9 103.656 1115.36 104.557C1118.14 105.622 1120.97 106.768 1123.83 107.997C1126.7 109.225 1129.24 110.74 1131.45 112.542C1133.74 114.344 1135.59 116.555 1136.98 119.175C1138.45 121.796 1139.19 124.99 1139.19 128.757ZM576.662 277.272H577.276V278.5H563.64V277.272H564.255C564.828 277.272 565.36 277.026 565.852 276.535C566.425 276.043 566.875 275.47 567.203 274.815C567.53 274.16 567.776 273.464 567.94 272.726C568.186 271.908 568.308 271.17 568.308 270.515V205.041C568.308 204.468 568.226 203.812 568.063 203.075C567.981 202.338 567.776 201.642 567.448 200.987C567.121 200.332 566.67 199.8 566.097 199.39C565.524 198.899 564.828 198.653 564.009 198.653H563.395V197.425H575.802L620.393 267.69V205.041C620.393 204.468 620.27 203.812 620.025 203.075C619.861 202.338 619.574 201.642 619.165 200.987C618.837 200.332 618.428 199.8 617.936 199.39C617.445 198.899 616.872 198.653 616.216 198.653H615.602V197.425H629.361V198.653H628.746C628.091 198.653 627.518 198.899 627.027 199.39C626.535 199.8 626.085 200.332 625.675 200.987C625.348 201.642 625.102 202.338 624.938 203.075C624.774 203.812 624.693 204.468 624.693 205.041V278.5H617.076L572.608 207.989V270.515C572.608 271.17 572.69 271.908 572.853 272.726C573.017 273.464 573.263 274.16 573.591 274.815C574 275.47 574.45 276.043 574.942 276.535C575.433 277.026 576.006 277.272 576.662 277.272ZM682.297 196.196C688.684 196.196 694.417 197.343 699.494 199.636C704.572 201.847 708.871 204.877 712.393 208.726C715.996 212.493 718.739 216.916 720.623 221.993C722.588 226.989 723.571 232.23 723.571 237.717C723.571 243.859 722.425 249.509 720.132 254.669C717.921 259.828 714.849 264.25 710.919 267.936C706.988 271.621 702.402 274.528 697.16 276.657C692.001 278.705 686.473 279.728 680.577 279.728C674.271 279.728 668.579 278.582 663.502 276.289C658.506 273.996 654.248 270.966 650.726 267.199C647.287 263.431 644.625 259.091 642.742 254.177C640.858 249.264 639.916 244.145 639.916 238.822C639.916 233.581 640.858 228.422 642.742 223.344C644.625 218.185 647.369 213.599 650.972 209.586C654.657 205.573 659.12 202.338 664.362 199.882C669.603 197.425 675.581 196.196 682.297 196.196ZM682.174 275.429C687.661 275.183 692.451 273.955 696.546 271.744C700.723 269.451 704.203 266.584 706.988 263.145C709.772 259.623 711.819 255.774 713.13 251.598C714.522 247.421 715.218 243.285 715.218 239.191C715.218 234.687 714.399 230.141 712.761 225.555C711.123 220.969 708.789 216.834 705.759 213.148C702.729 209.381 699.085 206.351 694.826 204.058C690.65 201.683 685.941 200.496 680.7 200.496C675.622 200.496 671.077 201.642 667.064 203.935C663.051 206.146 659.612 209.013 656.746 212.534C653.961 216.056 651.832 219.987 650.358 224.327C648.884 228.667 648.147 232.926 648.147 237.102C648.147 241.607 649.006 246.152 650.726 250.738C652.446 255.242 654.821 259.337 657.851 263.022C660.881 266.707 664.444 269.696 668.538 271.989C672.715 274.282 677.26 275.429 682.174 275.429ZM751.056 277.272H751.67V278.5H734.35V277.272H734.964C735.537 277.272 736.069 277.026 736.561 276.535C737.052 276.043 737.462 275.47 737.789 274.815C738.199 274.16 738.485 273.464 738.649 272.726C738.813 271.908 738.895 271.17 738.895 270.515V205.041C738.895 204.468 738.813 203.812 738.649 203.075C738.485 202.338 738.199 201.642 737.789 200.987C737.462 200.332 737.052 199.8 736.561 199.39C736.069 198.899 735.537 198.653 734.964 198.653H734.35V197.425H755.724C763.913 197.425 770.219 199.022 774.642 202.215C779.146 205.409 781.398 210.118 781.398 216.342C781.398 219.454 780.866 222.198 779.801 224.573C778.818 226.866 777.467 228.872 775.747 230.592C774.027 232.23 771.98 233.581 769.605 234.646C767.312 235.628 764.855 236.365 762.235 236.857L771.079 250.369C773.208 253.645 775.379 256.88 777.59 260.074C779.801 263.186 781.971 266.421 784.1 269.778C784.674 270.597 785.288 271.457 785.943 272.358C786.68 273.259 787.417 274.078 788.154 274.815C788.973 275.552 789.792 276.166 790.611 276.657C791.512 277.067 792.413 277.272 793.313 277.272V278.5H788.031C784.755 278.5 782.053 277.722 779.924 276.166C777.876 274.528 776.157 272.645 774.764 270.515C771.079 265.11 767.394 259.623 763.709 254.055C760.105 248.486 756.502 242.999 752.899 237.594C751.998 237.512 751.015 237.43 749.95 237.348C748.968 237.184 748.026 237.021 747.125 236.857V270.515C747.125 271.17 747.207 271.908 747.371 272.726C747.535 273.464 747.78 274.16 748.108 274.815C748.517 275.47 748.927 276.043 749.336 276.535C749.828 277.026 750.401 277.272 751.056 277.272ZM747.125 201.601V232.803H747.739C748.394 232.885 749.418 232.967 750.81 233.049C752.284 233.049 754.086 233.049 756.215 233.049C757.935 233.049 759.737 232.803 761.62 232.312C763.586 231.738 765.388 230.838 767.025 229.609C768.745 228.299 770.137 226.62 771.202 224.573C772.349 222.525 772.922 219.946 772.922 216.834C772.922 213.722 772.308 211.183 771.079 209.217C769.933 207.252 768.295 205.696 766.165 204.549C764.118 203.403 761.62 202.625 758.672 202.215C755.724 201.806 752.489 201.601 748.968 201.601H747.125ZM831.768 277.272H832.382V278.5H814.938V277.272H815.553C816.208 277.272 816.781 277.026 817.272 276.535C817.764 276.043 818.173 275.47 818.501 274.815C818.91 274.16 819.197 273.464 819.361 272.726C819.524 271.908 819.606 271.17 819.606 270.515V201.97H805.357C804.046 201.97 802.9 202.256 801.917 202.83C800.934 203.403 800.115 204.14 799.46 205.041C798.805 205.86 798.314 206.802 797.986 207.866C797.659 208.849 797.495 209.832 797.495 210.814H796.266V197.425H851.422V210.814H850.194C850.194 209.832 850.03 208.849 849.702 207.866C849.375 206.802 848.884 205.86 848.228 205.041C847.573 204.14 846.754 203.403 845.772 202.83C844.789 202.256 843.642 201.97 842.332 201.97H827.837V270.515C827.837 271.17 827.919 271.908 828.082 272.726C828.246 273.464 828.492 274.16 828.819 274.815C829.229 275.47 829.638 276.043 830.048 276.535C830.539 277.026 831.112 277.272 831.768 277.272ZM907.164 277.272H907.779C908.352 277.272 908.884 277.067 909.376 276.657C909.867 276.166 910.276 275.593 910.604 274.938C911.013 274.201 911.3 273.464 911.464 272.726C911.628 271.908 911.71 271.17 911.71 270.515V237.102H872.4V270.515C872.4 271.17 872.482 271.908 872.646 272.726C872.81 273.464 873.055 274.16 873.383 274.815C873.711 275.47 874.079 276.043 874.489 276.535C874.98 277.026 875.553 277.272 876.208 277.272H876.823V278.5H859.625V277.272H860.239C860.812 277.272 861.345 277.067 861.836 276.657C862.327 276.166 862.737 275.593 863.064 274.938C863.474 274.201 863.76 273.464 863.924 272.726C864.088 271.908 864.17 271.17 864.17 270.515V205.041C864.17 204.468 864.088 203.812 863.924 203.075C863.76 202.338 863.515 201.642 863.187 200.987C862.86 200.332 862.45 199.8 861.959 199.39C861.467 198.899 860.894 198.653 860.239 198.653H859.625V197.425H876.823V198.653H876.208C875.553 198.653 874.98 198.899 874.489 199.39C873.997 199.8 873.588 200.332 873.26 200.987C873.014 201.642 872.81 202.338 872.646 203.075C872.482 203.812 872.4 204.468 872.4 205.041V232.803H911.71V205.041C911.71 204.468 911.628 203.812 911.464 203.075C911.3 202.338 911.054 201.642 910.727 200.987C910.399 200.332 909.99 199.8 909.498 199.39C909.007 198.899 908.434 198.653 907.779 198.653H907.164V197.425H924.362V198.653H923.748C923.093 198.653 922.52 198.899 922.028 199.39C921.537 199.8 921.127 200.332 920.8 200.987C920.554 201.642 920.349 202.338 920.186 203.075C920.022 203.812 919.94 204.468 919.94 205.041V270.515C919.94 271.17 920.022 271.908 920.186 272.726C920.431 273.464 920.718 274.16 921.045 274.815C921.373 275.47 921.742 276.043 922.151 276.535C922.642 277.026 923.175 277.272 923.748 277.272H924.362V278.5H907.164V277.272ZM983.552 277.272H984.166V278.5H966.599V277.272H967.214C967.869 277.272 968.442 277.067 968.933 276.657C969.425 276.166 969.834 275.593 970.162 274.938C970.571 274.282 970.858 273.586 971.022 272.849C971.186 272.112 971.267 271.416 971.267 270.761V205.041C971.267 204.468 971.186 203.812 971.022 203.075C970.858 202.338 970.612 201.642 970.285 200.987C969.957 200.332 969.507 199.8 968.933 199.39C968.442 198.899 967.869 198.653 967.214 198.653H966.599V197.425H1013.77V208.849H1012.54C1012.54 206.965 1011.89 205.327 1010.58 203.935C1009.35 202.461 1007.38 201.724 1004.68 201.724H979.498V232.803H999.889C1001.77 232.803 1003.33 232.23 1004.56 231.083C1005.87 229.937 1006.52 228.585 1006.52 227.029H1007.75V242.385H1006.52C1006.52 240.911 1005.91 239.641 1004.68 238.577C1003.45 237.512 1001.85 236.98 999.889 236.98H979.498V270.761C979.498 271.416 979.58 272.112 979.743 272.849C979.907 273.586 980.153 274.282 980.481 274.938C980.89 275.593 981.34 276.166 981.832 276.657C982.323 277.067 982.896 277.272 983.552 277.272ZM1022.98 197.425H1040.42V198.653H1039.81C1039.15 198.653 1038.58 198.899 1038.09 199.39C1037.6 199.8 1037.15 200.332 1036.74 200.987C1036.41 201.642 1036.16 202.338 1036 203.075C1035.84 203.812 1035.75 204.468 1035.75 205.041V253.563C1035.75 256.757 1036.08 259.705 1036.74 262.408C1037.39 265.11 1038.5 267.444 1040.05 269.41C1041.61 271.375 1043.66 272.931 1046.2 274.078C1048.73 275.142 1051.85 275.675 1055.53 275.675C1059.63 275.675 1062.9 275.019 1065.36 273.709C1067.82 272.399 1069.7 270.72 1071.01 268.673C1072.32 266.543 1073.18 264.169 1073.59 261.548C1074 258.927 1074.2 256.348 1074.2 253.809V205.041C1074.2 204.468 1074.12 203.812 1073.96 203.075C1073.79 202.338 1073.51 201.642 1073.1 200.987C1072.77 200.332 1072.36 199.8 1071.87 199.39C1071.38 198.899 1070.85 198.653 1070.27 198.653H1069.66V197.425H1083.05V198.653H1082.43C1081.78 198.653 1081.21 198.899 1080.71 199.39C1080.3 199.8 1079.9 200.332 1079.49 200.987C1079.16 201.642 1078.91 202.338 1078.75 203.075C1078.59 203.812 1078.5 204.468 1078.5 205.041V253.44C1078.5 258.763 1077.85 263.145 1076.54 266.584C1075.23 269.942 1073.43 272.604 1071.13 274.569C1068.84 276.535 1066.14 277.886 1063.03 278.623C1060 279.36 1056.76 279.728 1053.32 279.728C1049.64 279.728 1046.2 279.319 1043 278.5C1039.89 277.763 1037.19 276.412 1034.89 274.446C1032.6 272.481 1030.8 269.819 1029.49 266.462C1028.18 263.022 1027.52 258.723 1027.52 253.563V205.041C1027.52 204.468 1027.44 203.812 1027.28 203.075C1027.11 202.338 1026.83 201.642 1026.42 200.987C1026.09 200.332 1025.68 199.8 1025.19 199.39C1024.7 198.899 1024.17 198.653 1023.59 198.653H1022.98V197.425ZM1107.61 277.272H1108.23V278.5H1094.59V277.272H1095.21C1095.78 277.272 1096.31 277.026 1096.8 276.535C1097.38 276.043 1097.83 275.47 1098.16 274.815C1098.48 274.16 1098.73 273.464 1098.89 272.726C1099.14 271.908 1099.26 271.17 1099.26 270.515V205.041C1099.26 204.468 1099.18 203.812 1099.02 203.075C1098.93 202.338 1098.73 201.642 1098.4 200.987C1098.07 200.332 1097.62 199.8 1097.05 199.39C1096.48 198.899 1095.78 198.653 1094.96 198.653H1094.35V197.425H1106.75L1151.35 267.69V205.041C1151.35 204.468 1151.22 203.812 1150.98 203.075C1150.81 202.338 1150.53 201.642 1150.12 200.987C1149.79 200.332 1149.38 199.8 1148.89 199.39C1148.4 198.899 1147.82 198.653 1147.17 198.653H1146.56V197.425H1160.31V198.653H1159.7C1159.04 198.653 1158.47 198.899 1157.98 199.39C1157.49 199.8 1157.04 200.332 1156.63 200.987C1156.3 201.642 1156.06 202.338 1155.89 203.075C1155.73 203.812 1155.65 204.468 1155.65 205.041V278.5H1148.03L1103.56 207.989V270.515C1103.56 271.17 1103.64 271.908 1103.81 272.726C1103.97 273.464 1104.22 274.16 1104.54 274.815C1104.95 275.47 1105.4 276.043 1105.89 276.535C1106.39 277.026 1106.96 277.272 1107.61 277.272ZM1171.73 277.272H1172.34C1172.92 277.272 1173.45 277.026 1173.94 276.535C1174.43 276.043 1174.84 275.47 1175.17 274.815C1175.58 274.16 1175.86 273.464 1176.03 272.726C1176.19 271.908 1176.27 271.17 1176.27 270.515V205.041C1176.27 204.468 1176.19 203.812 1176.03 203.075C1175.86 202.338 1175.62 201.642 1175.29 200.987C1174.96 200.332 1174.55 199.8 1174.06 199.39C1173.57 198.899 1173 198.653 1172.34 198.653H1171.73V197.425H1195.44C1201.91 197.425 1207.72 198.571 1212.88 200.864C1218.04 203.075 1222.38 206.105 1225.9 209.955C1229.51 213.722 1232.25 218.062 1234.13 222.976C1236.02 227.889 1236.96 233.008 1236.96 238.331C1236.96 243.326 1236.06 248.24 1234.26 253.072C1232.45 257.822 1229.75 262.08 1226.15 265.847C1222.54 269.614 1218.04 272.686 1212.64 275.06C1207.23 277.353 1200.97 278.5 1193.84 278.5H1171.73V277.272ZM1228.6 240.173C1228.6 234.932 1227.66 229.978 1225.78 225.31C1223.9 220.642 1221.23 216.588 1217.79 213.148C1214.44 209.627 1210.42 206.843 1205.76 204.795C1201.17 202.748 1196.17 201.724 1190.77 201.724H1184.5V274.201H1191.02C1195.44 274.201 1199.86 273.545 1204.28 272.235C1208.79 270.843 1212.84 268.755 1216.44 265.97C1220.05 263.104 1222.95 259.541 1225.17 255.283C1227.46 251.024 1228.6 245.988 1228.6 240.173Z" fill="#001F4F"/>
<path d="M295.686 163.311L234.454 267.154L151.547 238.346L25.083 351.14L19.0928 344.424L149.505 228.11L230.444 256.233L287.934 158.739L295.686 163.311Z" fill="black"/>
<path d="M414.509 358.605H0.881836L207.695 0.394531L414.509 358.605ZM23.3984 345.605H391.992L207.694 26.3945L23.3984 345.605Z" fill="black"/>
<path d="M309.715 163.913C309.715 174.887 300.819 183.783 289.845 183.783C278.871 183.783 269.975 174.887 269.975 163.913C269.975 152.939 278.871 144.042 289.845 144.042C300.819 144.042 309.715 152.939 309.715 163.913Z" fill="#26465D"/>
<path d="M249.249 262.058C249.249 271.013 241.989 278.273 233.034 278.273C224.079 278.273 216.819 271.013 216.819 262.058C216.819 253.103 224.079 245.843 233.034 245.843C241.989 245.843 249.249 253.103 249.249 262.058Z" fill="#26465D"/>
<path d="M164.247 236.152C164.247 245.518 156.653 253.112 147.286 253.112C137.92 253.112 130.326 245.518 130.326 236.152C130.326 226.785 137.92 219.191 147.286 219.191C156.653 219.191 164.247 226.785 164.247 236.152Z" fill="#26465D"/>
<line x1="470.797" y1="54.1494" x2="470.797" y2="304.741" stroke="#D3AE73" stroke-width="3"/>
</svg>
